<svg width="124" height="124" viewBox="0 0 124 124" fill="none" xmlns="http://www.w3.org/2000/svg">
<g filter="url(#filter0_d_162_82)">
<g clip-path="url(#clip0_162_82)">
<path d="M51.3254 60.6911C51.5508 56.6993 53.5193 53.1827 56.4893 50.6897C59.4017 48.2411 63.3216 46.7445 67.5989 46.7445C71.8719 46.7445 75.7921 48.2411 78.7066 50.6897C81.6742 53.1824 83.6429 56.6993 83.8705 60.6868C84.0956 64.7882 82.4354 68.5983 79.523 71.4226C76.5532 74.2954 72.3289 76.0981 67.5989 76.0981C62.8689 76.0981 58.6364 74.2954 55.6686 71.4226C52.754 68.5981 51.0979 64.788 51.3254 60.6911Z" fill="white"/>
<path d="M59.2514 61.0471C59.3668 58.999 60.3771 57.1945 61.9008 55.9154C63.3953 54.6591 65.4066 53.8911 67.6014 53.8911C69.7938 53.8911 71.8053 54.6591 73.3007 55.9154C74.8235 57.1945 75.8335 58.999 75.9502 61.0452C76.0659 63.1495 75.2142 65.1046 73.7196 66.5536C72.1958 68.0276 70.0284 68.9526 67.6014 68.9526C65.1744 68.9526 63.0026 68.0276 61.4798 66.5536C59.9844 65.1046 59.1347 63.1495 59.2514 61.0471Z" fill="#265787"/>
<path d="M45.9944 65.2548C46.009 66.0577 46.2668 67.6187 46.6539 68.8375C47.4671 71.4175 48.8465 73.8046 50.7661 75.9079C52.736 78.0702 55.1615 79.807 57.9635 81.0399C60.9083 82.3349 64.0991 82.9947 67.4134 82.9894C70.7223 82.9849 73.9133 82.312 76.8581 81.0072C79.6599 79.7623 82.0832 78.018 84.05 75.8548C85.9683 73.7425 87.3456 71.3514 88.1612 68.7714C88.5711 67.4678 88.8301 66.1447 88.934 64.8171C89.0356 63.5074 88.9928 62.1906 88.8062 60.8901C88.4411 58.3394 87.5521 55.9461 86.1836 53.7644C84.9319 51.7596 83.3186 50.0046 81.4001 48.5272L81.4044 48.524L62.0442 33.7632C62.0266 33.7502 62.0123 33.7363 61.9936 33.7243C60.7236 32.756 58.5874 32.7594 57.1905 33.7296C55.7781 34.7108 55.6164 36.3337 56.8734 37.357L56.868 37.3625L64.9431 43.8827L40.3312 43.9087H40.2982C38.2639 43.9111 36.3085 45.2363 35.9212 46.9111C35.5234 48.6173 36.9053 50.0327 39.0205 50.0404L39.0171 50.0478L51.4921 50.0238L29.2312 66.9904C29.2029 67.0111 29.1721 67.0327 29.146 67.0534C27.0461 68.65 26.3672 71.305 27.6898 72.9851C29.0322 74.6937 31.8865 74.6969 34.0082 72.9949L46.1574 63.1221C46.1574 63.1221 45.9802 64.4548 45.9944 65.2548ZM77.2135 69.7178C74.7103 72.2502 71.2055 73.6861 67.4136 73.6937C63.6159 73.7002 60.1114 72.2772 57.6081 69.7493C56.3848 68.5173 55.4864 67.0998 54.932 65.5899C54.3871 64.104 54.1775 62.5175 54.3178 60.9423C54.45 59.3889 54.9158 57.9074 55.659 56.5668C56.3892 55.2493 57.3948 54.0584 58.6368 53.0512C61.0698 51.0824 64.1679 50.0163 67.4078 50.012C70.6514 50.0077 73.747 51.0639 76.1827 53.0264C77.4222 54.0291 78.4269 55.2156 79.1571 56.5312C79.9101 57.8789 80.369 59.3689 80.5038 60.9043C80.6421 62.4785 80.4316 64.0637 79.8872 65.5486C79.3318 67.063 78.4366 68.4805 77.2135 69.7178Z" fill="#EA7600"/>
</g>
<rect x="8.5" y="8.5" width="99" height="99" rx="15.5" stroke="#BDBDBD" shape-rendering="crispEdges"/>
</g>
<defs>
<filter id="filter0_d_162_82" x="0" y="0" width="124" height="124" filterUnits="userSpaceOnUse" color-interpolation-filters="sRGB">
<feFlood flood-opacity="0" result="BackgroundImageFix"/>
<feColorMatrix in="SourceAlpha" type="matrix" values="0 0 0 0 0 0 0 0 0 0 0 0 0 0 0 0 0 0 127 0" result="hardAlpha"/>
<feOffset dx="4" dy="4"/>
<feGaussianBlur stdDeviation="6"/>
<feComposite in2="hardAlpha" operator="out"/>
<feColorMatrix type="matrix" values="0 0 0 0 0 0 0 0 0 0 0 0 0 0 0 0 0 0 0.25 0"/>
<feBlend mode="normal" in2="BackgroundImageFix" result="effect1_dropShadow_162_82"/>
<feBlend mode="normal" in="SourceGraphic" in2="effect1_dropShadow_162_82" result="shape"/>
</filter>
<clipPath id="clip0_162_82">
<rect width="62" height="50" fill="white" transform="translate(27 33)"/>
</clipPath>
</defs>
</svg>
