<svg width="360" height="60" viewBox="0 0 360 60" fill="none" xmlns="http://www.w3.org/2000/svg">
<rect width="60" height="60" rx="30" fill="#8CD3FF"/>
<path d="M29.024 30.392V27.872H25.976C26.392 26.08 26.632 24.552 26.696 23.288C26.76 22.024 26.792 20.992 26.792 20.192V19.136H19.496V21.656H23.696C23.664 22.424 23.592 23.312 23.48 24.32C23.368 25.328 23.144 26.512 22.808 27.872H17.192C17.448 26.976 17.64 26.152 17.768 25.4C17.912 24.632 18.016 23.936 18.08 23.312C18.144 22.672 18.176 22.096 18.176 21.584C18.192 21.056 18.2 20.584 18.2 20.168V19.136H10.904V21.656H15.104C15.072 22.424 14.984 23.312 14.84 24.32C14.712 25.328 14.44 26.512 14.024 27.872H9.032V30.392H29.024ZM27.176 37.112H14.648V32.216H11.456V39.632H27.176V37.112ZM48.9181 40.04V17.936H45.7261V40.04H48.9181ZM42.3421 20.24H31.7341V22.76H39.1021C38.9901 23.976 38.7421 25.112 38.3581 26.168C37.9901 27.224 37.4621 28.208 36.7741 29.12C36.0861 30.032 35.2301 30.88 34.2061 31.664C33.1821 32.432 31.9661 33.152 30.5581 33.824L32.2141 36.32C34.1821 35.376 35.8141 34.328 37.1101 33.176C38.4061 32.008 39.4381 30.752 40.2061 29.408C40.9901 28.048 41.5421 26.6 41.8621 25.064C42.1821 23.528 42.3421 21.92 42.3421 20.24Z" fill="white"/>
<rect x="100" width="60" height="60" rx="30" fill="#8CD3FF"/>
<path d="M119.544 27.128H124.344V29.024H127.512V17.96H124.344V20.192H119.52C118.992 19.68 118.352 19.28 117.6 18.992C116.864 18.688 116.04 18.536 115.128 18.536C114.296 18.536 113.528 18.664 112.824 18.92C112.12 19.176 111.504 19.536 110.976 20C110.464 20.448 110.056 20.992 109.752 21.632C109.464 22.256 109.32 22.944 109.32 23.696C109.32 24.432 109.464 25.12 109.752 25.76C110.056 26.384 110.464 26.92 110.976 27.368C111.504 27.816 112.12 28.168 112.824 28.424C113.528 28.68 114.296 28.808 115.128 28.808C116.04 28.808 116.872 28.664 117.624 28.376C118.376 28.072 119.016 27.656 119.544 27.128ZM112.32 23.696C112.32 22.88 112.576 22.248 113.088 21.8C113.616 21.352 114.296 21.128 115.128 21.128C115.96 21.128 116.64 21.352 117.168 21.8C117.696 22.248 117.96 22.88 117.96 23.696C117.96 24.512 117.696 25.144 117.168 25.592C116.64 26.024 115.96 26.24 115.128 26.24C114.296 26.24 113.616 26.024 113.088 25.592C112.576 25.144 112.32 24.512 112.32 23.696ZM120.84 22.64H124.344V24.68H120.864C120.928 24.536 120.96 24.208 120.96 23.696C120.96 23.504 120.944 23.328 120.912 23.168C120.896 22.992 120.872 22.816 120.84 22.64ZM128.136 39.8V37.352H116.088V35.96H127.512V29.96H112.92V32.384H124.368V33.68H112.968V39.8H128.136ZM145.822 17.96V23.288H142.51V25.856H145.822V31.112H148.99V17.96H145.822ZM142.294 30.512L143.83 28.04C142.998 27.768 142.27 27.408 141.646 26.96C141.022 26.512 140.502 26.016 140.086 25.472C139.686 24.912 139.382 24.32 139.174 23.696C138.966 23.072 138.854 22.448 138.838 21.824H143.134V19.28H131.254V21.824H135.598C135.566 22.512 135.438 23.2 135.214 23.888C135.006 24.56 134.686 25.2 134.254 25.808C133.838 26.4 133.31 26.944 132.67 27.44C132.03 27.92 131.27 28.312 130.39 28.616L131.998 31.112C133.294 30.68 134.374 30.04 135.238 29.192C136.118 28.328 136.798 27.336 137.278 26.216C137.758 27.192 138.414 28.056 139.246 28.808C140.078 29.544 141.094 30.112 142.294 30.512ZM141.526 31.592C140.358 31.592 139.302 31.688 138.358 31.88C137.414 32.072 136.614 32.352 135.958 32.72C135.318 33.072 134.822 33.512 134.47 34.04C134.118 34.568 133.942 35.168 133.942 35.84C133.942 36.512 134.118 37.112 134.47 37.64C134.822 38.168 135.318 38.608 135.958 38.96C136.614 39.328 137.414 39.608 138.358 39.8C139.302 39.992 140.358 40.088 141.526 40.088C142.694 40.088 143.742 39.992 144.67 39.8C145.614 39.608 146.406 39.328 147.046 38.96C147.702 38.608 148.206 38.168 148.558 37.64C148.91 37.112 149.086 36.512 149.086 35.84C149.086 35.168 148.91 34.568 148.558 34.04C148.206 33.512 147.702 33.072 147.046 32.72C146.406 32.352 145.614 32.072 144.67 31.88C143.742 31.688 142.694 31.592 141.526 31.592ZM141.526 37.688C138.582 37.688 137.11 37.072 137.11 35.84C137.11 34.608 138.582 33.992 141.526 33.992C144.454 33.992 145.918 34.608 145.918 35.84C145.918 37.072 144.454 37.688 141.526 37.688Z" fill="white"/>
<rect x="200" width="60" height="60" rx="30" fill="#8CD3FF"/>
<path d="M220.312 24.56H224.344V30.92H227.512V17.96H224.344V21.992H220.312V24.56ZM220.672 30.224L222.328 27.728C221.448 27.44 220.696 27.064 220.072 26.6C219.448 26.136 218.936 25.608 218.536 25.016C218.136 24.424 217.84 23.784 217.648 23.096C217.472 22.392 217.384 21.672 217.384 20.936V19.112H214.168V21.08C214.168 21.848 214.064 22.6 213.856 23.336C213.664 24.072 213.352 24.76 212.92 25.4C212.488 26.04 211.936 26.616 211.264 27.128C210.592 27.624 209.784 28.024 208.84 28.328L210.496 30.872C211.808 30.424 212.904 29.784 213.784 28.952C214.664 28.104 215.352 27.104 215.848 25.952C216.312 26.96 216.936 27.824 217.72 28.544C218.52 29.264 219.504 29.824 220.672 30.224ZM220.048 31.472C218.88 31.472 217.824 31.568 216.88 31.76C215.936 31.952 215.136 32.232 214.48 32.6C213.84 32.968 213.344 33.424 212.992 33.968C212.64 34.496 212.464 35.104 212.464 35.792C212.464 36.464 212.64 37.064 212.992 37.592C213.344 38.12 213.84 38.568 214.48 38.936C215.136 39.304 215.936 39.584 216.88 39.776C217.824 39.968 218.88 40.064 220.048 40.064C221.216 40.064 222.264 39.968 223.192 39.776C224.136 39.584 224.928 39.304 225.568 38.936C226.224 38.568 226.728 38.12 227.08 37.592C227.432 37.064 227.608 36.464 227.608 35.792C227.608 35.104 227.432 34.496 227.08 33.968C226.728 33.424 226.224 32.968 225.568 32.6C224.928 32.232 224.136 31.952 223.192 31.76C222.264 31.568 221.216 31.472 220.048 31.472ZM220.048 37.64C217.104 37.64 215.632 37.024 215.632 35.792C215.632 34.544 217.104 33.92 220.048 33.92C222.976 33.92 224.44 34.544 224.44 35.792C224.44 37.024 222.976 37.64 220.048 37.64ZM245.678 29.12H248.846V17.984H245.678V29.12ZM242.558 28.856L244.07 26.384C243.174 26.128 242.398 25.784 241.742 25.352C241.102 24.904 240.566 24.408 240.134 23.864C239.718 23.304 239.406 22.704 239.198 22.064C239.006 21.424 238.91 20.784 238.91 20.144V18.488H235.694V20.144C235.694 20.816 235.59 21.488 235.382 22.16C235.174 22.816 234.854 23.44 234.422 24.032C233.99 24.608 233.438 25.136 232.766 25.616C232.11 26.08 231.326 26.456 230.414 26.744L231.95 29.216C233.246 28.816 234.342 28.224 235.238 27.44C236.134 26.64 236.838 25.712 237.35 24.656C237.846 25.616 238.518 26.464 239.366 27.2C240.23 27.936 241.294 28.488 242.558 28.856ZM249.422 39.896V37.448H237.302V36.08H248.87V30.104H234.134V32.528H245.726V33.824H234.158V39.896H249.422Z" fill="white"/>
<rect x="300" width="60" height="60" rx="30" fill="#8CD3FF"/>
<path d="M327.44 40.04V17.936H324.248V40.04H327.44ZM320.864 20.24H310.256V22.76H317.624C317.512 23.976 317.264 25.112 316.88 26.168C316.512 27.224 315.984 28.208 315.296 29.12C314.608 30.032 313.752 30.88 312.728 31.664C311.704 32.432 310.488 33.152 309.08 33.824L310.736 36.32C312.704 35.376 314.336 34.328 315.632 33.176C316.928 32.008 317.96 30.752 318.728 29.408C319.512 28.048 320.064 26.6 320.384 25.064C320.704 23.528 320.864 21.92 320.864 20.24ZM350.814 24.8V22.232H347.91V17.96H344.742V29.192H347.91V24.8H350.814ZM331.158 28.616H341.742V18.92H338.622V21.56H334.278V18.92H331.158V28.616ZM334.278 23.936H338.622V26.144H334.278V23.936ZM348.534 37.448H336.486V36.056H347.91V30.056H333.318V32.456H344.79V33.8H333.342V39.896H348.534V37.448Z" fill="white"/>
<path d="M54 30H309" stroke="#8CD3FF" stroke-dasharray="2 2"/>
</svg>
