<svg width="124" height="124" viewBox="0 0 124 124" fill="none" xmlns="http://www.w3.org/2000/svg">
<g filter="url(#filter0_d_162_68)">
<g clip-path="url(#clip0_162_68)">
<path d="M50.0024 82C54.417 82 57.9999 78.416 57.9999 74V66H50.0024C45.5878 66 42.0049 69.584 42.0049 74C42.0049 78.416 45.5878 82 50.0024 82Z" fill="#0ACF83"/>
<path d="M42.0049 58C42.0049 53.584 45.5878 50 50.0024 50H57.9999V66H50.0024C45.5878 66 42.0049 62.416 42.0049 58Z" fill="#A259FF"/>
<path d="M42.0049 42C42.0049 37.584 45.5878 34 50.0024 34H57.9999V50H50.0024C45.5878 50 42.0049 46.416 42.0049 42Z" fill="#F24E1E"/>
<path d="M58 34H65.9975C70.4121 34 73.995 37.584 73.995 42C73.995 46.416 70.4121 50 65.9975 50H58V34Z" fill="#FF7262"/>
<path d="M73.995 58C73.995 62.416 70.4121 66 65.9975 66C61.5829 66 58 62.416 58 58C58 53.584 61.5829 50 65.9975 50C70.4121 50 73.995 53.584 73.995 58Z" fill="#1ABCFE"/>
</g>
<rect x="8.5" y="8.5" width="99" height="99" rx="15.5" stroke="#BDBDBD" shape-rendering="crispEdges"/>
</g>
<defs>
<filter id="filter0_d_162_68" x="0" y="0" width="124" height="124" filterUnits="userSpaceOnUse" color-interpolation-filters="sRGB">
<feFlood flood-opacity="0" result="BackgroundImageFix"/>
<feColorMatrix in="SourceAlpha" type="matrix" values="0 0 0 0 0 0 0 0 0 0 0 0 0 0 0 0 0 0 127 0" result="hardAlpha"/>
<feOffset dx="4" dy="4"/>
<feGaussianBlur stdDeviation="6"/>
<feComposite in2="hardAlpha" operator="out"/>
<feColorMatrix type="matrix" values="0 0 0 0 0 0 0 0 0 0 0 0 0 0 0 0 0 0 0.25 0"/>
<feBlend mode="normal" in2="BackgroundImageFix" result="effect1_dropShadow_162_68"/>
<feBlend mode="normal" in="SourceGraphic" in2="effect1_dropShadow_162_68" result="shape"/>
</filter>
<clipPath id="clip0_162_68">
<rect width="32" height="48" fill="white" transform="translate(42 34)"/>
</clipPath>
</defs>
</svg>
