<svg width="124" height="124" viewBox="0 0 124 124" fill="none" xmlns="http://www.w3.org/2000/svg">
<g filter="url(#filter0_d_162_148)">
<g clip-path="url(#clip0_162_148)">
<path d="M44.9132 75.9971V57.4578L39.1636 52.1978L34.0078 49.2788V72.7254C34.0078 74.5357 35.4745 75.9971 37.2795 75.9971H44.9132Z" fill="#4285F4"/>
<path d="M71.0869 75.9972H78.7206C80.5311 75.9972 81.9923 74.5303 81.9923 72.7255V49.2791L76.1526 52.6224L71.0869 57.4578V75.9972Z" fill="#34A853"/>
<path d="M44.9132 57.4578L44.1309 50.214L44.9132 43.2809L57.9997 53.0958L71.0861 43.2809L71.9612 49.8397L71.0861 57.4578L57.9997 67.2727L44.9132 57.4578Z" fill="#EA4335"/>
<path d="M71.0869 43.2809V57.4578L81.9923 49.2789V44.9166C81.9923 40.8708 77.3739 38.5644 74.1406 40.9908L71.0869 43.2809Z" fill="#FBBC04"/>
<path d="M34.0078 49.2789L39.0234 53.0407L44.9132 57.4579V43.2809L41.8595 40.9908C38.6206 38.5643 34.0078 40.8709 34.0078 44.9165V49.2787V49.2789Z" fill="#C5221F"/>
</g>
<rect x="8.5" y="8.5" width="99" height="99" rx="15.5" stroke="#BDBDBD" shape-rendering="crispEdges"/>
</g>
<defs>
<filter id="filter0_d_162_148" x="0" y="0" width="124" height="124" filterUnits="userSpaceOnUse" color-interpolation-filters="sRGB">
<feFlood flood-opacity="0" result="BackgroundImageFix"/>
<feColorMatrix in="SourceAlpha" type="matrix" values="0 0 0 0 0 0 0 0 0 0 0 0 0 0 0 0 0 0 127 0" result="hardAlpha"/>
<feOffset dx="4" dy="4"/>
<feGaussianBlur stdDeviation="6"/>
<feComposite in2="hardAlpha" operator="out"/>
<feColorMatrix type="matrix" values="0 0 0 0 0 0 0 0 0 0 0 0 0 0 0 0 0 0 0.25 0"/>
<feBlend mode="normal" in2="BackgroundImageFix" result="effect1_dropShadow_162_148"/>
<feBlend mode="normal" in="SourceGraphic" in2="effect1_dropShadow_162_148" result="shape"/>
</filter>
<clipPath id="clip0_162_148">
<rect width="48" height="36.1752" fill="white" transform="translate(34 40)"/>
</clipPath>
</defs>
</svg>
