<svg width="124" height="124" viewBox="0 0 124 124" fill="none" xmlns="http://www.w3.org/2000/svg">
<g filter="url(#filter0_d_162_69)">
<rect width="48" height="48" transform="translate(34 34)" fill="#251616"/>
<path d="M34 34V82H82V34H34ZM35.9995 36.0509H79.999V79.9476H35.9995V36.0509ZM45.601 45.2423C45.601 45.1053 45.883 45.0022 46.0465 45.0022C47.7645 44.9277 49.484 44.8928 51.2035 44.8976C56.7505 44.8976 58.906 48.0147 58.906 52.0058C58.906 57.223 55.219 59.4586 50.7025 59.4586C49.9375 59.4586 49.6795 59.4186 49.1485 59.4186V67.3037C49.1485 67.4714 49.0855 67.5437 48.922 67.5437H45.8275C45.664 67.5437 45.601 67.4791 45.601 67.3114V45.2423ZM49.1485 56.1414C49.609 56.1737 49.9765 56.1737 50.773 56.1737C53.1085 56.1737 55.312 55.3244 55.312 52.0796C55.312 49.4748 53.734 48.1532 51.0625 48.1532C50.2735 48.1532 49.516 48.1855 49.1485 48.2178V56.1414ZM66.367 53.6966C64.7815 53.6966 64.2505 54.5136 64.2505 55.1875C64.2505 55.9322 64.6105 56.4384 66.727 57.56C69.8605 59.1231 70.852 60.6048 70.852 62.808C70.852 66.0851 68.407 67.8483 65.11 67.8483C63.3595 67.8483 61.8685 67.4714 61.009 66.9667C60.8845 66.9021 60.853 66.799 60.853 66.6298V63.6173C60.853 63.4173 60.9475 63.345 61.0795 63.4496C62.2766 64.248 63.6746 64.6714 65.1025 64.6681C66.688 64.6681 67.345 63.9942 67.345 63.0742C67.345 62.3295 66.8845 61.6879 64.876 60.6063C62.032 59.2124 60.844 57.7938 60.844 55.4214C60.844 52.7766 62.86 50.5811 66.352 50.5811C68.071 50.5811 69.2815 50.8534 69.946 51.1503C70.1095 51.255 70.141 51.4227 70.141 51.5596V54.3721C70.141 54.5398 70.039 54.6444 69.844 54.5721C68.953 54.0351 67.6405 53.6905 66.3595 53.6905L66.367 53.6966Z" fill="#31C5F0"/>
<rect x="8.5" y="8.5" width="99" height="99" rx="15.5" stroke="#BDBDBD" shape-rendering="crispEdges"/>
</g>
<defs>
<filter id="filter0_d_162_69" x="0" y="0" width="124" height="124" filterUnits="userSpaceOnUse" color-interpolation-filters="sRGB">
<feFlood flood-opacity="0" result="BackgroundImageFix"/>
<feColorMatrix in="SourceAlpha" type="matrix" values="0 0 0 0 0 0 0 0 0 0 0 0 0 0 0 0 0 0 127 0" result="hardAlpha"/>
<feOffset dx="4" dy="4"/>
<feGaussianBlur stdDeviation="6"/>
<feComposite in2="hardAlpha" operator="out"/>
<feColorMatrix type="matrix" values="0 0 0 0 0 0 0 0 0 0 0 0 0 0 0 0 0 0 0.25 0"/>
<feBlend mode="normal" in2="BackgroundImageFix" result="effect1_dropShadow_162_69"/>
<feBlend mode="normal" in="SourceGraphic" in2="effect1_dropShadow_162_69" result="shape"/>
</filter>
</defs>
</svg>
